<svg width="78" height="78" viewBox="0 0 78 78" fill="#6D28D9" xmlns="http://www.w3.org/2000/svg">
  <path fill-rule="evenodd" clip-rule="evenodd" d="M25.5689 6.83244H52.4246L71.1634 25.5713V52.4269L52.4246 71.1658H25.5689L6.83008 52.4269V25.5713L25.5689 6.83244ZM26.2159 8.39444L8.39207 26.2183V51.7799L26.2159 69.6038H51.7776L69.6014 51.7799V26.2183L51.7776 8.39444H26.2159Z" fill="#6D28D9" />
  <path fill-rule="evenodd" clip-rule="evenodd" d="M39 0.395503L77.6045 39L39 77.6045L0.395505 39L39 0.395503ZM39 2.6045L2.6045 39L39 75.3955L75.3955 39L39 2.6045Z" fill="#6D28D9" />
  <path d="M50.5705 25.3501C50.3739 25.1224 50.0635 25.019 49.7219 25.0914L25.3451 31.6319C25.0605 31.7199 24.8431 31.9424 24.7655 32.2321C24.6931 32.5167 24.7811 32.822 24.988 33.029L28.486 36.5269L23.3167 37.9189C23.0321 38.0017 22.8148 38.2293 22.7423 38.5191C22.6699 38.8037 22.7578 39.109 22.9648 39.316L36.5219 52.8627C36.6823 53.0231 36.8996 53.1111 37.1169 53.1111C37.1842 53.1111 37.2567 53.1007 37.3239 53.0852C37.6085 53.0128 37.8362 52.7903 37.9293 52.485L39.3006 47.3416L42.8192 50.8654C42.9796 51.0206 43.1918 51.1086 43.4091 51.1086C43.4764 51.1086 43.5488 51.0982 43.6161 51.0827C43.9059 51.0103 44.1284 50.7929 44.2215 50.4876L50.7465 26.1263C50.8241 25.8572 50.7568 25.5623 50.5705 25.3501ZM36.8324 51.2121L24.6155 39.0055L29.6192 37.6602L38.1674 46.2084L36.8324 51.2121ZM43.1297 49.2095L39.7145 45.7944L42.8761 33.9915C42.9693 33.6965 42.8865 33.3757 42.6692 33.1584C42.4518 32.941 42.1362 32.8583 41.8568 32.941L30.0331 36.113L26.6387 32.7185L49.1631 26.6748L43.1297 49.2095Z" fill="#6D28D9" />
</svg>